<?xml version="1.0" encoding="utf-8"?>
<!-- Generator: Adobe Illustrator 27.2.0, SVG Export Plug-In . SVG Version: 6.00 Build 0)  -->
<svg version="1.1" id="Layer_1" xmlns="http://www.w3.org/2000/svg" xmlns:xlink="http://www.w3.org/1999/xlink" x="0px" y="0px"
	 viewBox="0 0 1920 494.7" style="enable-background:new 0 0 1920 494.7;" xml:space="preserve">
<style type="text/css">
	.st0{fill:#181F5D;}
	.st1{font-family:'Montserrat-Bold';}
	.st2{font-size:144.4364px;}
	.st3{font-family:'Montserrat-Regular';}
	.st4{font-size:98.267px;}
	.st5{fill:#24AF00;}
</style>
<g>
	<text transform="matrix(1 0 0 1 528.6221 260.6252)" class="st0 st1 st2">HIZB UR RAHMAN</text>
	<text transform="matrix(1 0 0 1 534.9507 364.2278)" class="st0 st3 st4">ISLAMIC ACADEMY</text>
	<g>
		<g>
			<path class="st5" d="M438.2,250.9c-5.6-9.1-13.6-11-23-8.7c-3.9,1-7,3.1-7.5,7.5c-0.5,4.6,1.7,8,5.8,9.9
				c9.7,4.5,19.9,4.5,30.2,2.2c4.7-1,9.4-2.4,14.6-3.7c2,7.6,3.9,14.9,6,22.8c-17.4,4.8-34.1,9.9-51.1,14
				c-9.6,2.3-19.6,3.6-29.6,4.1c-13.4,0.7-25.2-2.6-29.2-18.3c-0.7,2.8-1.3,5.6-2.2,8.3c-2.5,7.3-7.4,10.6-14.8,10
				c-7.4-0.5-12-4.5-13.3-11.9c-0.4-2.5-1-3.7-3.8-3.7c-32.4,0.1-64.8,0.1-97.1,0.1c-0.6,0-1.2,0.1-2.2,0.3
				c-0.1,1.5-0.3,2.9-0.3,4.4c0,12.9,0,25.7,0,38.6c0,8.5,0.9,9.4,9.3,9.4c47.7,0,95.3,0,143,0c2.6,0,5.1,0.1,7.7,0.4
				c11.4,1.4,18,8.2,18.8,19.7c0.3,4.9,0.1,9.9,0.1,15.1c-6.3,0-12.3,0-18.9,0c0-3.2,0-6.5,0-10.3c-2.5,0-4.4,0-6.3,0
				c-48.3,0-96.5,0-144.8,0c-2.7,0-5.4-0.2-8.1-0.5c-8.8-1.1-14.7-5.9-17.6-14.3c-0.5-1.5-1-3.1-1.8-5.6c-0.9,3.6-1.5,6.1-2.2,8.6
				c-1.9,6.2-5.6,10.7-12.4,11.8c-6.6,1.1-12.2-1-15.7-6.7c-4.2-6.6-7.8-13.6-11.6-20.5c-1.5-2.6-2.7-5.4-4.3-8.7
				c-5.8,2.8-11.5,5.5-17.1,8.2c0.2,0.6,0.3,1.1,0.5,1.7c6.3,2.4,13.2,0.2,20,1.5c0,8,0,15.9,0,24.8c-8.1-0.4-16.2-0.2-24-1.4
				c-8.1-1.3-11.7-8.9-8.9-16.7c0.4-1.1,0.8-2.1,1.1-3.2c-0.5-0.2-1-0.5-1.5-0.7c-1.4,2.6-3.7,5.1-4,7.8c-0.7,7.2-0.7,14.5-0.6,21.7
				c0,4.2,2.6,6.7,6.8,7.2c3.3,0.4,6.6,0.7,9.9,0.7c32.2,0,64.5,0,96.7,0c1.7,0,3.3,0,5.4,0c0,8.2,0,16.1,0,24.5
				c-1.5,0.1-3.1,0.3-4.7,0.3c-33.9,0-67.8,0.1-101.7-0.1c-4.3,0-8.8-0.4-13-1.6c-10.7-2.9-17.6-10.5-18.5-21.2
				c-1-13.2-0.4-26.5,0.4-39.7c0.5-7.9,5.4-14.3,12.3-18.2c10.8-6.1,21.6-12.6,33.1-16.8c6.5-2.4,14.6-0.8,22-0.7
				c0.8,0,1.7,1.9,2.3,3c3.7,7.8,7.2,15.7,10.9,23.5c1.5,3.2,3.3,6,7.5,6.3c7.3,0.4,10-1.9,10-9.3c0-14.2,0-28.4,0-43.3
				c-4.5,0-8.6,0-12.8,0c-6.7,0-13.3,0.1-20,0c-14.8-0.2-21.8-6.4-24.2-21c-0.1-0.7-0.3-1.3-1.2-2.1c-0.6,1.8-1.1,3.6-1.7,5.4
				c-3.4,9.6-9,13.2-19.4,12.6c-10.5-0.6-17.5-5.9-19.5-15.2c-2.7-12.5,0.6-23.5,10.7-31.2c7.3-5.5,15.6-9.7,23.8-13.9
				c4.2-2.2,7.8-4,6-9.9c6.9,0,13.3,0,20.2,0c0,3.7,0,7.3,0,10.8c0,10.9,0,21.8,0,32.7c0,5.7,1.1,6.8,6.6,6.8
				c10.3,0.1,20.6,0,31.4,0c0-5.8,0-11.5,0-17.3c6.9,0,13.2,0,20,0c0,5.6,0,11.1,0,17.2c40.1,0,79.8,0,120,0c0,2.8-0.1,5,0,7.2
				c0.2,5.8,2.3,8.5,6.6,8.5c4,0,6.2-2.6,6.3-8.3c0.1-14.2,0-28.4,0.1-42.7c0-2.2,0-4.5,0-6.9c6.9,0,13.2,0,20.3,0
				c0,1.8,0,3.5,0,5.3c0,14.8,0,29.7,0,44.5c0,7.1,1.2,8.1,8.3,8.1c5.4,0,10.8,0,17,0c-8.1-11.9-11.7-24-5.9-37.3
				c3.6-8.2,9.5-14.3,17.8-17.9c16.5-7.1,36,0.1,43.8,16.3C449.3,240.3,443.8,245.5,438.2,250.9z M142.3,233.9
				c-5.2,2.3-9.8,4.3-14.4,6.5c-2.8,1.4-5.7,2.9-8,5c-3.4,3.1-2.2,7.5,2.3,7.9c5.5,0.5,11.1,0.2,16.6-0.4c1.3-0.1,3.2-2.5,3.3-4
				C142.6,244.2,142.3,239.3,142.3,233.9z"/>
			<path class="st5" d="M306.4,104.2c7.1,0,13.4,0,20.3,0c0,1.8,0,3.4,0,5c0,21,0,42.1,0,63.1c0,7.6,1.6,9.2,9.4,9.2
				c2.9,0,5.7,0,8.6,0c7.1-0.1,9.9-2.8,10-9.9c0-1.5,0-3,0-4.8c6.1,0,12,0,18,0c0.4,4.1,0.8,8.2,1.3,12.2c0.4,0.1,0.9,0.1,1.3,0.2
				c1.8-3,3.6-6.1,5.5-9.1c2.8-4.5,5.5-9.1,8.7-13.3c12.5-16.4,29.4-20.8,48.9-16.7c14.2,3,22.4,13.8,23.4,29.6
				c0.2,2.7,0.2,5.5,0,8.2c-1.3,17.6-9.9,26.9-27.9,27.8c-18.6,0.9-37.2,0.7-55.8,0.1c-11.5-0.3-19.1-6.7-22.2-18.9
				c-2.5,15.6-12.3,20.2-26.2,19.2c-11.5-0.9-18.9-6.5-21.7-19.4c-0.8,2.4-1.1,3.4-1.4,4.5c-2.4,9.2-8.1,14.9-17.6,16.8
				c-10.7,2.2-21.3,4.5-31.9,7c-3,0.7-5.8,2.5-8.7,3.7c0.2,0.5,0.3,1,0.5,1.5c30.3,0,60.5,0,91.2,0c0,8.6,0,16.6,0,25.3
				c-1.5,0-3.1,0-4.7,0c-27.4,0-54.8,0-82.1,0c-2.1,0-4.2-0.1-6.3-0.4c-9.1-1.1-14.8-6.1-16.1-15.2c-0.7-5.5-0.7-11.2,0.1-16.7
				c1.5-9.9,7.9-16.5,17.1-19.4c11.5-3.6,23.4-6,35.1-8.9c5.4-1.3,10.9-2.3,16.3-3.7c6-1.6,7-3.1,7-9.2c0-20.7,0-41.5,0-62.2
				C306.4,108.2,306.4,106.5,306.4,104.2z M390.7,181.2c1.2,0.1,1.9,0.3,2.6,0.3c13.1,0,26.2,0,39.4-0.1c2.1,0,4.2-0.4,6.3-0.8
				c3.7-0.7,5.3-3.1,5.6-6.7c0.4-5.3-2.3-9.1-7.9-9.6c-6.7-0.6-13.6-0.2-20.3-0.8C403.2,162.5,396.1,169.9,390.7,181.2z"/>
			<path class="st5" d="M142.3,168.7c-0.6,1.8-1.1,3.6-1.8,5.4c-3.3,9.2-9.4,13.3-19.1,12.6c-11-0.7-17.9-5.9-19.9-15.3
				c-2.7-12.9,1-24,11.5-31.8c7.1-5.3,15.2-9.3,23.1-13.3c4.3-2.2,7.7-4.1,5.9-10c6.9,0,13.3,0,20.2,0c0,8,0,15.8,0,23.6
				c0,6-0.1,12.1,0.1,18.1c0.2,5.5,2.6,8.1,8,8.5c3.2,0.3,6.4,0.3,9.5,0c6.4-0.5,8.9-3.2,8.9-9.6c0.1-7.7,0-15.4,0-23.4
				c6.3,0,12.2,0,18.8,0c0,7.3,0,14.6,0,22c0,8.7,2.4,11.1,11,11.2c14.3,0.2,15.5-1.1,15.5-15.4c0-15.6,0-31.1,0-47.1
				c6.8,0,13.3,0,19.9,0c0.2,0.3,0.5,0.5,0.5,0.8c-0.1,19.5,0.4,39-0.5,58.5c-0.8,17.5-12,27.4-29.6,27.9c-4.8,0.1-9.7,0-14.4-0.8
				c-10.5-1.8-14.2-5.3-19.9-17.7c-2.2,6.5-4.2,12.6-10.3,16c-5.9,3.3-12.3,3.2-18.6,2.2C150.6,189.6,145.8,183.5,142.3,168.7z
				 M142.3,142c-6.2,2.8-11.8,5.3-17.4,7.9c-1.6,0.8-3.4,1.6-4.5,3c-1.2,1.5-2.4,3.9-2,5.5c0.4,1.4,2.9,3,4.6,3.1
				c4.8,0.4,9.7,0.3,14.4-0.2c1.7-0.2,4.4-2.3,4.5-3.8C142.7,152.6,142.3,147.7,142.3,142z"/>
			<path class="st5" d="M380.5,401.7c0-8.6,0-16.5,0-25c4.7,0,9.2,0.1,13.7,0c10.6-0.2,21.2-0.3,31.7-0.9c3.7-0.2,7.5-1.3,10.9-2.7
				c7.9-3.1,11.1-8.8,10.4-16.7c-2.3,2.6-4.5,6.5-7.8,8.5c-8.8,5.4-24.3,1.2-30.1-7.3c-9.1-13.3-2.7-46.4,23.4-48.9
				c12.4-1.2,23.4,5.5,28.1,17.9c6.2,16.5,6.1,33.2-1,49.5c-5.3,12.1-15,19.6-27.6,23C415.2,403.7,397.9,400.8,380.5,401.7z
				 M447.4,344.5c-2.6-9.9-15.7-14.5-22.3-8.9c-1.3,1.1-2.3,3.5-2.1,5c0.3,1.5,2.4,3.6,3.7,3.7C433.5,344.8,440.2,344.5,447.4,344.5
				z"/>
			<path class="st5" d="M338.1,152.1c-1-4-1.9-7.3-2.8-11.1c41.6-10.8,82.7-21.5,124.3-32.3c1.1,3.9,2,7.4,3.1,11.4
				C421.1,130.8,379.9,141.4,338.1,152.1z"/>
			<path class="st5" d="M324.1,377.1c3.6,0,6.5,0,8.3,0c2.1,2.2,3.4,3.7,4.8,5.2c1.4-1.4,2.8-2.8,5-5.1c1.6,0,4.7,0,6.9,0
				c1.6,2,2.7,3.5,3.8,5c0.4-2,0.8-4,1.1-6.1c0.1-0.8-0.2-1.7-0.3-3c3.1-0.6,6-1.2,9.2-1.8c2.2,6.3,2.4,12.4-0.4,18.2
				c-2.2,4.5-6.3,5.7-11,5.6c-5.2-0.1-8.5-2.4-10.2-8.7c-1.4,5.5-3.2,9.1-8.6,8.7c-4.9-0.3-6.3-4-8-9.3c-1.9,9.5-8.3,8.9-14.5,8.9
				c-18,0-35.9,0-54.3,0c0-3.9,0-7.5,0-12c1.6,0,3.3,0,5.1,0c18.9,0,37.8,0,56.6,0C321.3,382.8,324.3,382.1,324.1,377.1z"/>
			<path class="st5" d="M270.8,173.4c0-23.1,0-45.8,0-69c6.6,0,13,0,19.7,0c0,23,0,45.9,0,69C283.9,173.4,277.5,173.4,270.8,173.4z"
				/>
			<path class="st5" d="M398.1,305.6c0.5,4,0.9,7.4,1.5,11.4c-35.5,4.4-70.7,8.7-106.1,13c-0.7-3.9-1.3-7.2-2.1-11.3
				C326.8,314.3,362.2,310,398.1,305.6z"/>
			<path class="st5" d="M178.6,209.6c4.5,0,7.9,0,11.9,0c0,1.8-0.2,3.4,0.1,5c0.3,1.6,1.1,3,1.7,4.5c0.7-1.6,1.8-3.1,2-4.7
				c0.3-2.8,0.1-5.7,0.1-8.9c3.8,0,7.4,0,11.6,0c0,1.7-0.2,3.7,0.1,5.5c0.2,1.2,1.3,2.2,1.9,3.3c0.6-1.2,1.9-2.4,1.8-3.6
				c-0.2-2.8-0.9-5.6-1.6-8.9c3.6-1.1,7.1-2.2,10.9-3.4c2.5,6.6,3.5,12.8,2.1,19.4c-1.3,6.1-5,10.1-10.1,11
				c-5.9,0.9-10.4-1-13.3-7.8c-0.6,2.7-0.9,4.4-1.3,6c-1.4,5.1-4.4,7.6-8.9,7.4c-4.2-0.1-7.5-2.7-8.2-7.6
				C178.8,221.1,178.9,215.6,178.6,209.6z"/>
			<path class="st5" d="M175.2,104.2c4.4,0,7.8,0,11.9,0c0,2.4-0.2,4.6,0.1,6.8c0.1,0.9,1.2,1.8,1.8,2.7c0.7-0.8,1.9-1.7,2-2.5
				c0.2-3.6,0.1-7.2,0.1-11.1c3.9,0,7.5,0,11.5,0c0.2,2.9,0.4,5.8,0.6,8.8c3.9-1.2,3.9-1.2,1.8-12.4c3.4-1.1,6.9-2.2,10.9-3.5
				c2.9,8.3,4.4,16.3,0.3,24.2c-4.6,8.7-14.8,8.5-21.7-0.6c-0.6,2.1-0.9,4.2-1.6,6.1c-1.5,4.1-4.1,6.6-8.8,6.3
				c-4.6-0.4-7.3-3.3-7.9-7.5C175.4,115.9,175.5,110.3,175.2,104.2z"/>
			<path class="st5" d="M336.6,104.2c4.4,0,7.9,0,12,0c0,1.7-0.2,3.4,0.1,4.9c0.3,1.6,1.1,3,1.7,4.5c0.7-1.6,1.8-3.1,2-4.7
				c0.3-2.8,0.1-5.7,0.1-8.9c3.9,0,7.4,0,11.6,0c0,1.9-0.2,3.9,0.1,5.7c0.2,1.1,1.1,2.1,1.7,3.1c0.7-1.1,2.1-2.3,2-3.4
				c-0.2-3-0.9-5.9-1.5-9.2c3.6-1.1,7-2.1,10.9-3.3c3,7.9,4.3,15.7,0.6,23.4c-4.4,9.5-15.3,9.5-22,0c-0.5,2-0.8,3.9-1.4,5.7
				c-1.6,4.8-4.6,7.1-9,6.7c-4.6-0.3-7.3-3.3-7.9-7.5C336.9,115.9,336.9,110.3,336.6,104.2z"/>
			<path class="st5" d="M271.7,297.5c8.1,0,12.1,3.8,12.1,11.7c0.1,8.2-3.9,12.1-12.2,12.1c-8.5,0-12.2-3.7-12.2-12
				C259.4,300.9,263,297.5,271.7,297.5z"/>
			<path class="st5" d="M240.5,321.3c-8.6,0-12.3-3.6-12.3-11.9c0-8.3,3.7-11.9,12.3-11.9c8.4,0,12,3.4,12,11.6
				C252.6,317.5,248.9,321.3,240.5,321.3z"/>
		</g>
	</g>
</g>
</svg>
